<mxfile host="app.diagrams.net" modified="2023-11-03T17:24:10.855Z" agent="Mozilla/5.0 (Windows NT 10.0; Win64; x64) AppleWebKit/537.36 (KHTML, like Gecko) Chrome/118.0.0.0 Safari/537.36 Edg/118.0.2088.76" version="22.0.8" etag="93evszJcsuJACL9VpSr1" type="github">
  <diagram name="Page-1" id="2Bsuvjy72PjbNP1SqA06">
    <mxGraphModel>
      <root>
        <mxCell id="0" />
        <mxCell id="1" parent="0" />
      </root>
    </mxGraphModel>
  </diagram>
</mxfile>
